<svg width="134" height="134" viewBox="0 0 134 134" fill="none" xmlns="http://www.w3.org/2000/svg">
<path d="M0 4.145L2.63499 2.073C5.16599 0.081998 6.43798 0 34.866 0H64.462L73.731 9.23001L83 18.46V25.03C83 28.807 83.51 32.11 84.2 32.8C84.86 33.46 87.973 34 91.118 34C98.301 34 99.718 34.554 101.537 38.072C103.639 42.137 103.372 43.781 100.077 47.077C97.52 49.634 96.423 50.002 91.327 50.015C84.381 50.034 82.529 50.942 83.46 53.875C84.047 55.725 84.898 56 90.02 56C97.286 56 100.504 57.387 102.083 61.201C103.094 63.64 103.025 64.725 101.68 67.545C99.915 71.247 98.453 71.84 90.103 72.241C84.41 72.514 82.113 74.246 83.309 77.364C83.865 78.812 86.531 79 106.469 79C127.451 79 129.134 79.134 130.944 80.944C133.808 83.808 134.192 87.596 133.829 109.414L133.5 129.177L130.694 131.588L127.888 134H84.009C59.864 134 39.047 133.588 37.721 133.084C33.407 131.444 32.863 128.041 33.194 104.759C33.47 85.293 33.683 83.004 35.387 81.123C37.162 79.164 38.462 79.025 57.346 78.77L77.419 78.5L78.131 75.016C79.25 69.538 82.988 67 89.933 67C96.474 67 99.261 65.225 97 62.5C96.13 61.452 93.821 61 89.332 61C83.846 61 82.551 60.642 80.455 58.545C78.907 56.998 78 54.948 78 53C78 51.052 78.907 49.002 80.455 47.455C82.551 45.358 83.846 45 89.332 45C96.095 45 98.574 43.658 97.41 40.627C96.923 39.356 95.369 39 90.316 39C84.498 39 83.551 38.705 80.923 36.077C78.396 33.55 78 32.403 78 27.617V22.081L69.75 21.79L61.5 21.5L61.209 13.234L60.919 4.96899L33.209 5.23401L5.5 5.5V50V94.5L16.25 94.784C26.934 95.066 27 95.083 27 97.534V100H15.5C5.333 100 3.768 99.768 2 98C0.058 96.058 0 94.667 0 50.073V4.145Z" fill="#3C668D"/>
<path d="M14 53.063C14 52.235 16.563 48.968 19.696 45.802C25.086 40.355 25.491 40.135 27.228 41.706C28.988 43.299 28.869 43.564 24.319 48.184L19.575 53L24.295 57.792C27.983 61.537 28.751 62.849 27.808 63.792C27.143 64.457 26.142 65 25.581 65C23.965 65 14 54.729 14 53.063Z" fill="#3C668D"/>
<path d="M58.028 48.528C53.699 44.118 53.664 44.028 55.506 41.994C57.372 39.931 57.373 39.932 63.186 45.684C66.384 48.848 69 52.141 69 53C69 53.859 66.384 57.152 63.186 60.316C57.373 66.068 57.372 66.069 55.506 64.006C53.664 61.972 53.699 61.882 58.028 57.472L62.416 53L58.028 48.528Z" fill="#3C668D"/>
<path d="M34 62.477C34 62.228 36.353 57.294 39.228 51.512C42.103 45.73 44.608 41 44.794 41C44.979 41 45.999 41.464 47.058 42.031C48.881 43.007 48.688 43.656 43.472 54.055C38.442 64.086 37.786 64.956 35.98 63.989C34.891 63.406 34 62.726 34 62.477Z" fill="#3C668D"/>
</svg>
