<svg width="503" height="134" viewBox="0 0 503 134" fill="none" xmlns="http://www.w3.org/2000/svg">
<path fill-rule="evenodd" clip-rule="evenodd" d="M2.635 2.073L0 4.145V50.073C0 94.667 0.058 96.058 2 98C3.768 99.768 5.333 100 15.5 100H27V97.534C27 95.083 26.934 95.066 16.25 94.784L5.5 94.5V50V5.5L33.209 5.234L60.919 4.969L61.209 13.234L61.5 21.5L69.75 21.79L78 22.081V27.617C78 32.403 78.396 33.55 80.923 36.077C83.551 38.705 84.498 39 90.316 39C95.369 39 96.923 39.356 97.41 40.627C98.574 43.658 96.095 45 89.332 45C83.846 45 82.551 45.358 80.455 47.455C78.907 49.002 78 51.052 78 53C78 54.948 78.907 56.998 80.455 58.545C82.551 60.642 83.846 61 89.332 61C93.821 61 96.13 61.452 97 62.5C99.261 65.225 96.474 67 89.933 67C82.988 67 79.25 69.538 78.131 75.016L77.419 78.5L57.346 78.77C38.462 79.025 37.162 79.164 35.387 81.123C33.683 83.004 33.47 85.293 33.194 104.759C32.863 128.041 33.407 131.444 37.721 133.084C39.047 133.588 59.864 134 84.009 134H127.888L130.694 131.588L133.5 129.177L133.829 109.414C134.192 87.596 133.808 83.808 130.944 80.944C129.134 79.134 127.451 79 106.469 79C86.531 79 83.865 78.812 83.309 77.364C82.113 74.246 84.41 72.514 90.103 72.241C98.453 71.84 99.915 71.247 101.68 67.545C103.025 64.725 103.094 63.64 102.083 61.201C100.504 57.387 97.286 56 90.02 56C84.898 56 84.047 55.725 83.46 53.875C82.529 50.942 84.381 50.034 91.327 50.015C96.423 50.002 97.52 49.634 100.077 47.077C103.372 43.781 103.639 42.137 101.537 38.072C99.718 34.554 98.301 34 91.118 34C87.973 34 84.86 33.46 84.2 32.8C83.51 32.11 83 28.807 83 25.03V18.46L73.731 9.23L64.462 0H34.866C6.438 0 5.166 0.0820018 2.635 2.073ZM182.211 30.873C181.258 31.919 178.236 32.289 170.642 32.289C164.339 32.289 158.375 32.879 155.224 33.815C147.603 36.078 147.522 37.555 155.067 36.702C160.205 36.121 161.24 36.244 160.841 37.391C155.792 51.911 154.378 54.686 151 56.701C147.799 58.611 147.692 58.816 149.752 59.109C152.101 59.442 152.12 60.956 149.854 67.104C148.422 70.986 148.847 80.626 150.557 83.066C152.992 86.543 153.526 85.758 153.159 79.249C152.862 73.984 153.283 72.226 156.42 65.619L160.023 58.033L166.011 58.711C172.336 59.426 172.606 59.291 170.965 56.223C170.238 54.865 168.866 54.289 166.358 54.289C163.875 54.289 162.953 53.908 163.334 53.039C166.931 44.83 168.957 39.505 168.976 38.204C168.997 36.853 170.177 36.688 177 37.083C184.295 37.505 185.01 37.381 185.118 35.667C185.427 30.78 184.175 28.715 182.211 30.873ZM285.431 34.644C285.393 36.487 283.736 41.418 281.749 45.602L278.136 53.211L273.238 52.631C268.791 52.104 268.019 52.333 264.845 55.12C262.923 56.808 259.812 61.249 257.932 64.989C256.052 68.729 252.536 73.927 250.12 76.539C242.025 85.291 240.683 81.527 247 67.789C251.504 57.993 251.77 56.296 249.171 53.944C246.989 51.969 245.397 51.838 244.276 53.539C243.823 54.227 240.85 57.264 237.669 60.289C232.688 65.026 232.032 65.398 232.943 62.974C234.536 58.731 234.223 55.512 232 53.289C229.197 50.486 228.319 50.775 227.574 54.746C226.691 59.454 223.238 67.081 220.15 71.146C217.548 74.571 209.405 81.289 207.856 81.289C205.948 81.289 207.22 76.637 211 69.789C213.2 65.804 215 61.834 215 60.967C215 60.1 213.472 58.225 211.604 56.8C209.277 55.025 208.361 53.625 208.694 52.352C209.458 49.428 207.199 46.12 204.682 46.478C203.022 46.715 202.424 47.581 202.182 50.104C202.007 51.928 202.375 54.036 203.001 54.79C204.398 56.473 203.696 57.904 196.236 68.566C188.106 80.188 181.628 84.199 178.98 79.251C177.235 75.992 178.709 73.644 184.575 70.333C190.405 67.043 193.99 62.435 193.996 58.223C193.999 56.26 193.04 55.118 189.914 53.361L185.827 51.064L182.292 54.426C174.136 62.184 170.509 76.281 175.25 81.793C181.243 88.76 191.209 82.732 201.547 65.886C204.215 61.539 206.547 58.43 206.729 58.976C206.911 59.522 205.696 63.008 204.03 66.722C200.855 73.799 200.056 80.945 202.2 83.089C204.519 85.408 209.644 84.444 214.432 80.789C216.954 78.864 219.182 77.289 219.384 77.289C219.585 77.289 220.015 78.615 220.339 80.235C220.663 81.855 221.844 83.671 222.964 84.27C224.758 85.23 225 85.064 225 82.876C225 80.517 231.751 71.425 236.909 66.837L239.104 64.885L238.052 67.652C236.695 71.223 236.699 78.859 238.061 81.403C240.708 86.35 247.477 85.45 251.865 79.567C253.862 76.889 253.938 76.87 253.968 79.039C253.986 80.276 254.883 82.172 255.961 83.25C258.716 86.005 263.027 84.334 267.755 78.678L271.419 74.294L272.988 78.542C274.022 81.342 275.521 83.251 277.388 84.146C279.935 85.367 280.512 85.287 283.137 83.345L286.056 81.188L288.663 83.238C293.523 87.061 306.162 84.592 309.014 79.263C310.143 77.153 309.945 71.987 308.574 67.789C308.04 66.154 308.823 65.287 312.858 63.039C315.573 61.526 317.997 60.289 318.244 60.289C318.492 60.289 317.57 62.561 316.196 65.338C314.821 68.114 313.489 72.549 313.235 75.192C312.268 85.254 317.294 87.258 324.763 79.789C327.238 77.314 329.425 75.289 329.623 75.289C330.194 75.289 325.449 87.489 323.048 92.195C321.849 94.545 318.532 98.88 315.677 101.828C311.549 106.089 309.619 107.326 306.261 107.863C303.937 108.235 302.28 108.933 302.577 109.414C303.413 110.766 307.25 110.457 313.11 108.565C325.528 104.554 336.303 86.756 341.07 62.377L342.324 55.964L339.561 53.588C337.415 51.742 336.491 51.467 335.42 52.355C334.398 53.203 333.217 53.212 330.854 52.388C328.282 51.491 327.207 51.579 325.28 52.841C323.967 53.702 322.654 55.028 322.362 55.789C321.681 57.563 307.257 63.602 305.402 62.89C303.364 62.108 303.671 60.709 306.5 57.88C309.769 54.611 309.798 50.61 306.564 49.136C303.525 47.751 301.591 48.458 299.441 51.739C297.748 54.322 298.139 56.824 301.423 64.433C301.974 65.71 300.931 66.665 296.753 68.709C293.795 70.156 289.169 73.579 286.474 76.315C283.78 79.051 280.996 81.289 280.288 81.289C277.198 81.289 280.424 69.234 288.039 52.322C293.548 40.087 293.964 37.162 290.664 33.862C287.138 30.336 285.515 30.578 285.431 34.644ZM392.428 35.005C392.386 37.257 390.292 43.446 387.257 50.289C384.452 56.614 381.617 63.649 380.955 65.922C379.616 70.526 370.121 81.289 367.397 81.289C364.881 81.289 366.195 76.681 371.967 65.257L376.951 55.396L374.313 53.321C371.723 51.283 371.637 51.28 369.588 53.135C367.737 54.81 367.159 54.875 364.5 53.702C362.85 52.975 360.714 52.359 359.753 52.334C356.688 52.255 350.404 59 347.46 65.527C340.789 80.325 346.63 90.259 356.131 80.272L359.953 76.254L360.614 79.022C362.155 85.466 366.513 86.07 373.423 80.796C377.266 77.863 378 77.597 378 79.141C378 84.802 387.725 86.124 395.054 81.46C400.721 77.854 401.61 76.725 404.35 69.651C406.279 64.669 407.138 63.629 410.324 62.417C412.37 61.638 414.3 61.256 414.613 61.568C414.925 61.881 413.34 64.574 411.09 67.553C406.568 73.542 406.286 74.289 408.545 74.289C409.395 74.289 412.415 70.637 415.256 66.172C418.097 61.708 420.581 58.531 420.774 59.111C420.968 59.692 419.748 63.307 418.063 67.146C414.889 74.377 414.115 81.004 416.2 83.089C417.709 84.598 422.448 84.64 425.316 83.169C426.517 82.553 428.917 80.709 430.649 79.071L433.798 76.093L434.525 79.441C435.408 83.511 436.43 84.254 441.173 84.274C443.848 84.285 446.096 83.335 449.445 80.779L454.042 77.27L454.917 79.571C457.419 86.153 466.372 86.061 472.407 79.391C474.904 76.632 475.349 76.725 476.694 80.289C478.201 84.282 481.507 85.469 486 83.628C490.355 81.844 498 74.488 498 72.081C498 71.095 497.815 70.289 497.59 70.289C497.364 70.289 494.604 72.764 491.456 75.789C484.604 82.372 481 83.17 481 78.105C481 76.353 481.734 72.303 482.632 69.105C483.9 64.586 484.959 62.858 487.382 61.355C494.446 56.973 503 45.139 503 39.748C503 33.82 496.787 31.309 491.808 35.225C490.454 36.29 487.925 39.829 486.187 43.09C482.132 50.698 476 66.556 476 69.435C476 70.795 474.038 73.548 470.94 76.534C467.022 80.311 465.274 81.34 463.19 81.1C460.89 80.834 460.456 80.264 460.197 77.164C459.909 73.716 460.159 73.39 465.329 70.473C468.318 68.786 471.716 66.194 472.882 64.712C475.682 61.152 475.607 56.273 472.719 54.184C467.901 50.698 466.493 50.922 462.146 55.86C458.739 59.731 454 69.214 454 72.161C454 74.271 443.613 81.786 442.04 80.814C440.587 79.916 441.64 76.223 446.149 66.399C448.267 61.785 450 57.406 450 56.669C450 55.933 448.2 54.411 446 53.289C442.272 51.387 441.998 51.369 441.971 53.019C441.92 56.084 436.553 68.223 433.627 71.89C430.82 75.408 423.451 81.289 421.85 81.289C419.948 81.289 421.224 76.629 425 69.789C427.2 65.804 429 61.834 429 60.967C429 60.1 427.472 58.225 425.604 56.8C423.277 55.025 422.361 53.625 422.694 52.352C423.458 49.428 421.199 46.12 418.682 46.478C416.161 46.837 415.222 50.967 416.935 54.167C418.646 57.364 417.286 58.806 411.575 59.853C406.601 60.764 406.052 60.668 404.177 58.563C401.977 56.093 399.024 55.67 395.849 57.37C392.704 59.053 392.588 57.854 395.333 52.05C396.729 49.099 398.413 44.536 399.074 41.91C400.157 37.607 400.08 36.872 398.288 34.462C397.194 32.992 395.444 31.661 394.4 31.505C392.828 31.271 392.488 31.875 392.428 35.005ZM70.195 12.687C73.862 16.2 73.733 17 69.5 17C66.167 17 66 16.833 66 13.5C66 9.294 66.544 9.189 70.195 12.687ZM500 38.399C500 42.95 490.241 57.863 488.441 56.063C487.886 55.508 495.246 40.009 497.237 37.539C498.76 35.65 500 36.037 500 38.399ZM445.32 42.297C445.119 47.836 446.518 48.716 450.777 45.732C453.53 43.804 453.596 41.885 451 39.289C447.388 35.677 445.523 36.665 445.32 42.297ZM205.985 50.539C205.972 52.358 205.784 52.502 205 51.289C203.747 49.35 203.747 48.289 205 48.289C205.55 48.289 205.993 49.302 205.985 50.539ZM420.394 49.873C420.767 50.846 420.544 51.304 419.813 51.06C418.318 50.562 417.495 48.289 418.81 48.289C419.347 48.289 420.059 49.002 420.394 49.873ZM306 52.134C306 52.599 305.1 53.794 304 54.789C302.412 56.226 302 56.299 302 55.144C302 53.575 303.898 51.289 305.2 51.289C305.64 51.289 306 51.669 306 52.134ZM192 58.711C192 60.141 184.351 67.289 182.82 67.289C181.186 67.289 182.079 65.784 186.208 61.577C190.65 57.051 192 56.383 192 58.711ZM275.538 60.039C274.266 65.187 263.338 80.289 260.884 80.289C259.154 80.289 260.04 74.602 262.557 69.55C266.944 60.748 277.223 53.216 275.538 60.039ZM333.815 61.039C332.861 64.531 321.419 80.159 319.75 80.249C318.223 80.331 319.09 77.261 322.376 70.958C326.838 62.397 330.823 57.289 333.038 57.289C334.634 57.289 334.722 57.715 333.815 61.039ZM472.767 59.514C470.698 62.629 464.151 67.773 463.317 66.939C462.401 66.024 471.012 57.289 472.83 57.289C474.029 57.289 474.02 57.627 472.767 59.514ZM366 59.098C366 61.958 352.853 80.289 350.802 80.289C349.259 80.289 350.49 73.974 353.073 68.638C356.442 61.679 359.723 58.289 363.089 58.289C364.69 58.289 366 58.653 366 59.098ZM400.74 61.289C400.949 62.496 391.753 68.942 386.674 71.148C386.22 71.345 386.763 69.714 387.88 67.524C391.143 61.129 399.969 56.849 400.74 61.289ZM19.696 45.802C16.563 48.968 14 52.235 14 53.063C14 54.729 23.965 65 25.581 65C26.142 65 27.143 64.457 27.808 63.792C28.751 62.849 27.983 61.537 24.295 57.792L19.575 53L24.319 48.184C28.869 43.564 28.988 43.299 27.228 41.706C25.491 40.135 25.086 40.355 19.696 45.802ZM55.506 41.994C53.664 44.028 53.699 44.118 58.028 48.528L62.416 53L58.028 57.472C53.699 61.882 53.664 61.972 55.506 64.006C57.372 66.069 57.373 66.068 63.186 60.316C66.384 57.152 69 53.859 69 53C69 52.141 66.384 48.848 63.186 45.684C57.373 39.932 57.372 39.931 55.506 41.994ZM39.228 51.512C36.353 57.294 34 62.228 34 62.477C34 62.726 34.891 63.406 35.98 63.989C37.786 64.956 38.442 64.086 43.472 54.055C48.688 43.656 48.881 43.007 47.058 42.031C45.999 41.464 44.979 41 44.794 41C44.608 41 42.103 45.73 39.228 51.512ZM397.968 71.039C394.962 76.173 389.155 81.289 386.333 81.289C383.279 81.289 383.236 78.341 386.25 75.567C388.988 73.048 398.051 67.289 399.277 67.289C399.765 67.289 399.175 68.977 397.968 71.039ZM303.539 73.111C302.507 77.81 298.707 81.289 294.607 81.289C292.688 81.289 290.863 80.877 290.552 80.374C289.175 78.144 301.453 67.515 303.351 69.294C303.819 69.732 303.904 71.45 303.539 73.111ZM128.393 85.582C129.448 88.332 129.07 125.001 127.965 127.066C126.966 128.932 125.416 129 83.665 129C51.348 129 40.096 128.696 39.2 127.8C37.902 126.502 37.401 85.933 38.667 84.667C39.033 84.3 59.235 84 83.56 84C122.966 84 127.852 84.172 128.393 85.582ZM44.18 95.25C44.459 97.21 45.176 97.539 49.75 97.802C54.791 98.092 55 98.003 55 95.552C55 93.121 54.735 93 49.43 93C44.227 93 43.882 93.148 44.18 95.25ZM61 95.5C61 97.864 61.3 98 66.5 98C71.7 98 72 97.864 72 95.5C72 93.136 71.7 93 66.5 93C61.3 93 61 93.136 61 95.5ZM78 95.5C78 97.864 78.3 98 83.5 98C88.7 98 89 97.864 89 95.5C89 93.136 88.7 93 83.5 93C78.3 93 78 93.136 78 95.5ZM95 95.5C95 97.833 95.333 98 100 98C104.667 98 105 97.833 105 95.5C105 93.167 104.667 93 100 93C95.333 93 95 93.167 95 95.5ZM112 95.5C112 97.833 112.333 98 117 98C121.667 98 122 97.833 122 95.5C122 93.167 121.667 93 117 93C112.333 93 112 93.167 112 95.5ZM44.18 106.25C44.459 108.21 45.176 108.539 49.75 108.802C54.791 109.092 55 109.003 55 106.552C55 104.121 54.735 104 49.43 104C44.227 104 43.882 104.148 44.18 106.25ZM61 106.5C61 108.864 61.3 109 66.5 109C71.7 109 72 108.864 72 106.5C72 104.136 71.7 104 66.5 104C61.3 104 61 104.136 61 106.5ZM78 106.5C78 108.864 78.3 109 83.5 109C88.7 109 89 108.864 89 106.5C89 104.136 88.7 104 83.5 104C78.3 104 78 104.136 78 106.5ZM95 106.5C95 108.833 95.333 109 100 109C104.667 109 105 108.833 105 106.5C105 104.167 104.667 104 100 104C95.333 104 95 104.167 95 106.5ZM112 106.5C112 108.833 112.333 109 117 109C121.667 109 122 108.833 122 106.5C122 104.167 121.667 104 117 104C112.333 104 112 104.167 112 106.5ZM44 117.5C44 119.864 44.3 120 49.5 120C54.7 120 55 119.864 55 117.5C55 115.136 54.7 115 49.5 115C44.3 115 44 115.136 44 117.5ZM61 117.5V120H83H105V117.5V115H83H61V117.5ZM112 117.5C112 119.833 112.333 120 117 120C121.667 120 122 119.833 122 117.5C122 115.167 121.667 115 117 115C112.333 115 112 115.167 112 117.5Z" fill="#3C668D"/>
</svg>
