<svg width="62" height="128" viewBox="0 0 62 128" fill="none" xmlns="http://www.w3.org/2000/svg">
<path fill-rule="evenodd" clip-rule="evenodd" d="M29.046 1.78122C25.96 4.21622 25.599 6.94522 27.802 11.1702C29.837 15.0732 29.678 18.0512 27.269 21.1132C22.927 26.6332 21.984 30.7392 21.503 46.2252C21.197 56.0552 21.476 63.4602 22.32 67.9362C23.891 76.2572 22.392 87.8692 19.24 91.8062C15.449 96.5412 6.296 110.615 6.296 111.709C6.296 112.313 5.959 112.809 5.546 112.813C5.133 112.817 3.717 114.404 2.398 116.341L0 119.862L2.269 122.278C6.669 126.961 14.565 129.198 18.296 126.819C19.53 126.032 19.132 125.313 16.046 122.761C11.745 119.204 11.459 117.357 14.402 112.116C17.279 106.996 24.789 97.5712 27.16 96.1092C28.227 95.4502 29.875 92.5252 30.821 89.6092C31.767 86.6922 32.898 83.9172 33.334 83.4412C34.799 81.8412 37.261 88.5892 38.695 98.1322C39.478 103.342 40.608 108.52 41.207 109.64C41.806 110.759 42.296 114.629 42.296 118.24V124.806H48.647C59.244 124.806 65.315 121.312 57.496 119.713C53.057 118.805 49.382 116.16 48.174 113.004C47.607 111.52 46.925 105.356 46.66 99.3062C46.393 93.2342 45.047 83.0052 43.654 76.4722C42.266 69.9632 41.369 64.4002 41.661 64.1082C42.375 63.3942 49.296 67.7272 49.296 68.8882C49.296 70.5132 54.332 69.8752 54.988 68.1662C55.44 66.9892 53.41 64.4972 47.797 59.3382L39.977 52.1502L40.622 45.2102C40.977 41.3932 40.793 35.5792 40.214 32.2882C38.312 21.4752 38.35 18.9242 40.427 18.2642C41.455 17.9382 42.366 16.6892 42.452 15.4892C42.808 10.5222 43.137 8.19822 43.761 6.26722C44.685 3.40322 41.629 0.950223 36.223 0.214223C32.612 -0.277777 31.289 0.011222 29.046 1.78122Z" fill="white"/>
</svg>
