<svg width="95" height="156" viewBox="0 0 95 156" fill="none" xmlns="http://www.w3.org/2000/svg">
<path fill-rule="evenodd" clip-rule="evenodd" d="M85.0227 1.99924C85.3087 3.09324 84.9477 4.15824 84.1937 4.44724C83.1797 4.83624 83.0857 5.74924 83.8047 8.25524C84.3247 10.0682 84.7497 11.6492 84.7497 11.7702C84.7497 11.8912 82.0757 13.8052 78.8077 16.0242C75.5397 18.2442 72.2777 20.8662 71.5577 21.8522C70.1917 23.7252 59.9877 29.0642 57.7737 29.0642C57.0717 29.0642 53.7927 30.4382 50.4867 32.1182C47.1807 33.7982 43.9377 34.9662 43.2797 34.7142C42.4007 34.3772 42.3017 32.4522 42.9037 27.4502C43.6907 20.9132 43.6177 20.5352 41.0487 17.8552C37.6327 14.2892 36.3377 14.3442 33.5297 18.1732C32.2757 19.8842 30.2367 21.6722 28.9997 22.1492C26.5967 23.0732 25.9177 25.0642 28.0047 25.0642C29.2247 25.0642 31.3867 29.9882 32.3957 35.0642C32.8457 37.3242 32.5597 37.5812 29.4227 37.7362C27.5147 37.8302 24.6627 38.5752 23.0867 39.3902C21.0217 40.4572 18.3627 40.7222 13.5727 40.3382L6.92366 39.8042L6.28367 36.1842C5.93067 34.1932 5.43566 31.8522 5.18166 30.9812C4.89066 29.9802 5.68166 28.9612 7.33366 28.2082C9.25766 27.3312 9.75566 26.5622 9.22366 25.2912C8.82666 24.3412 8.22066 22.3152 7.87566 20.7882L7.24966 18.0112L4.13767 20.8552C1.62367 23.1522 0.889667 24.7912 0.315667 29.3822C-0.584333 36.5852 0.526663 45.6982 2.55166 47.7232C3.77066 48.9432 5.35066 49.1412 9.81266 48.6362C15.3117 48.0142 15.5377 48.0812 16.1517 50.5282C16.7127 52.7632 17.3107 53.0642 21.1977 53.0642C28.3917 53.0642 28.9647 54.2052 30.7387 72.0642C31.6107 80.8372 31.5177 81.9053 29.5287 86.0173L27.3747 90.4702L30.0197 98.0173C31.4747 102.168 32.9547 107.833 33.3087 110.607C33.9137 115.349 33.7967 115.721 31.3507 116.836C29.9207 117.488 28.7497 118.751 28.7497 119.643C28.7497 121.236 33.3557 126.112 37.6477 129.064L39.8287 130.564L37.6227 137.853C33.9897 149.855 35.9927 153.849 46.4977 155.551C50.0027 156.119 50.8617 155.936 51.4097 154.507C51.8687 153.311 51.2627 152.184 49.4467 150.862C45.6577 148.102 45.1007 143.49 47.6617 136.09C48.8227 132.736 50.2207 125.845 50.7677 120.778C51.3157 115.71 52.1917 109.764 52.7157 107.564C53.2387 105.364 54.1747 98.1642 54.7947 91.5642C55.6007 82.9822 56.3607 79.2222 57.4617 78.3622C58.4167 77.6162 58.7377 76.4782 58.3097 75.3622C57.9297 74.3732 57.6257 67.2642 57.6357 59.5642L57.6527 45.5642L61.7017 42.0372C63.9277 40.0972 65.7497 37.9702 65.7497 37.3102C65.7497 36.6502 67.9157 34.3982 70.5637 32.3052C78.3627 26.1412 91.7497 10.3562 91.7497 7.32524C91.7497 5.89324 92.4967 3.89624 93.4107 2.88724C95.6337 0.430244 94.6427 -0.299755 91.2087 1.26524C88.9947 2.27424 88.3217 2.28124 87.9957 1.30224C87.2857 -0.828756 84.4567 -0.165755 85.0227 1.99924Z" fill="white"/>
</svg>
