<svg width="123" height="107" viewBox="0 0 123 107" fill="none" xmlns="http://www.w3.org/2000/svg">
<path fill-rule="evenodd" clip-rule="evenodd" d="M77.644 1.60719C74.6766 5.09819 71.8331 10.6462 71.8181 12.9752C71.8002 15.7642 70.8786 17.3822 68.9546 18.0012C68.1958 18.2452 66.8479 20.4132 65.9593 22.8192C64.5385 26.6662 63.8047 27.3582 59.8519 28.5712C54.4334 30.2342 48.6265 32.9752 47.675 34.3182C46.3121 36.2442 45.4844 33.7282 46.5508 30.8992C47.5452 28.2602 47.3106 27.6672 43.7601 23.8532C41.6275 21.5632 39.8832 19.2772 39.8832 18.7732C39.8832 17.6372 34.0983 17.6942 31.3965 18.8572C30.2982 19.3302 29.7691 19.7482 30.2214 19.7872C30.6727 19.8252 30.1105 21.0432 28.9733 22.4922C25.7015 26.6582 26.5481 31.6892 31.2557 36.0582C32.8203 37.5102 32.8992 37.9952 31.755 39.1392C30.5089 40.3852 20.9998 43.3322 20.4167 42.6522C20.278 42.4902 18.31 38.6142 16.0456 34.0392C11.3999 24.6562 10.7419 19.5632 13.9519 17.8422C16.5139 16.4692 15.4745 14.5782 12.592 15.3682C10.5902 15.9172 10.5592 15.8562 12.1767 14.5492C14.9563 12.3022 14.3463 10.5682 10.9526 11.0672C9.31914 11.3072 7.78056 11.0202 7.53494 10.4302C6.75716 8.56719 4.96996 12.1532 4.95299 15.6072C4.94001 18.4032 4.58956 18.8572 2.44193 18.8572C-0.608288 18.8572 -0.886851 20.5942 2.09248 21.0372C5.12073 21.4882 8.27977 26.1662 8.19191 30.0692C8.15098 31.8772 8.97468 35.9462 10.022 39.1112C11.0694 42.2762 11.9271 45.9042 11.9271 47.1742C11.9271 50.1632 19.5301 53.6382 28.0138 54.5262C31.4784 54.8892 34.9789 55.9252 36.3268 56.9872C38.6781 58.8392 48.1463 77.0282 49.4033 82.1072C50.1112 84.9662 51.3462 85.4712 53.8124 83.9082C54.8827 83.2302 55.7184 83.7412 57.0044 85.8602C60.6037 91.7882 66.0801 92.0922 75.3276 86.8772C78.0733 85.3282 82.9597 83.4812 86.1866 82.7722C91.659 81.5692 92.1492 81.6132 93.4692 83.4202C94.247 84.4852 95.1635 86.4722 95.505 87.8352C95.8465 89.1982 97.5777 92.3482 99.3519 94.8352C101.126 97.3222 103.283 101.063 104.144 103.148L105.712 106.939L113.972 106.648C120.923 106.403 122.285 106.078 122.568 104.599C122.819 103.28 121.297 102.119 116.468 99.9492C110.512 97.2722 109.98 96.7712 109.316 93.2072C108.225 87.3482 102.777 73.6292 100.578 71.2052C98.5163 68.9312 91.9755 66.8572 86.8665 66.8572C85.1882 66.8572 83.8143 66.4612 83.8143 65.9772C83.8143 65.1342 90.6825 59.1802 93.7977 57.3232C96.0421 55.9852 106.527 54.5842 112.941 54.7642C120.01 54.9632 119.688 55.6742 120.099 38.9462C120.198 34.9142 119.835 32.3912 119.121 32.1492C118.496 31.9382 116.339 34.7112 114.329 38.3112C112.319 41.9112 110.36 44.8412 109.974 44.8222C109.589 44.8022 108.17 44.1742 106.82 43.4252C105.291 42.5772 103.58 42.3642 102.276 42.8602C101.127 43.2982 97.7884 43.2202 94.857 42.6862C89.6771 41.7432 89.3836 41.8172 84.4244 45.3002C77.3584 50.2632 76.6995 50.8572 73.5294 55.1072C70.3634 59.3532 67.8394 60.0062 67.8394 56.5802C67.8394 55.3272 67.1654 53.3382 66.3417 52.1612C65.518 50.9832 65.0997 49.3532 65.4112 48.5392C65.7237 47.7252 65.499 46.7622 64.912 46.3992C64.3259 46.0362 63.8456 45.1062 63.8456 44.3332C63.8456 42.4092 69.7144 35.8572 71.4377 35.8572C72.2375 35.8572 72.8315 34.8502 72.8315 33.4922C72.8315 32.1912 73.6892 30.0352 74.7365 28.7012C77.0699 25.7302 77.3794 24.1762 76.362 20.5332C75.3147 16.7852 76.983 13.3412 81.0487 10.8582C84.1248 8.98019 84.1738 8.86419 81.8933 8.86119L79.4721 8.85719L81.6577 6.52719C83.8053 4.23819 83.8103 4.15919 81.9642 2.02719C79.6958 -0.59281 79.528 -0.608811 77.644 1.60719Z" fill="white"/>
</svg>
